<?xml version="1.0" standalone="no"?>
<!DOCTYPE svg PUBLIC "-//W3C//DTD SVG 20010904//EN"
 "http://www.w3.org/TR/2001/REC-SVG-20010904/DTD/svg10.dtd">
<svg version="1.0" xmlns="http://www.w3.org/2000/svg"
 width="348.000000pt" height="364.000000pt" viewBox="0 0 348.000000 364.000000"
 preserveAspectRatio="xMidYMid meet">

<g transform="translate(0.000000,364.000000) scale(0.100000,-0.100000)"
fill="#C2185B" stroke="none">
<path d="M1933 3283 c-10 -3 -10 -10 -2 -25 17 -31 2 -84 -32 -112 -42 -36
-74 -42 -115 -23 -47 23 -67 57 -62 112 l3 45 -42 0 c-51 0 -63 -17 -63 -87 0
-62 32 -118 88 -157 53 -37 145 -47 204 -22 52 22 101 75 116 123 15 49 15 67
1 116 -9 34 -12 37 -47 36 -20 0 -43 -3 -49 -6z"/>
<path d="M1225 2903 c-17 -40 -17 -217 -1 -287 l16 -68 -39 -59 c-55 -83 -92
-163 -105 -231 -8 -46 -14 -57 -26 -51 -35 16 -111 15 -136 -2 -63 -41 -83
-134 -41 -196 33 -50 81 -71 145 -64 51 5 52 5 52 -22 0 -51 58 -196 107 -267
26 -38 71 -88 100 -110 47 -37 54 -46 63 -96 21 -104 40 -159 60 -170 10 -5
78 -10 150 -10 l131 0 24 55 25 55 84 0 c83 0 84 0 90 -27 4 -16 12 -40 18
-55 l10 -28 133 0 c168 0 168 0 200 134 23 96 24 99 78 147 94 83 166 207 196
335 l12 51 61 6 c67 6 100 25 136 77 27 41 28 79 2 130 -31 60 -91 84 -166 66
-30 -7 -32 -6 -39 31 -11 60 -61 172 -109 243 -33 48 -42 69 -36 85 22 59 31
167 21 251 -6 48 -13 89 -15 92 -8 7 -189 -27 -250 -48 -32 -11 -81 -32 -110
-48 -42 -23 -58 -26 -91 -20 -61 11 -214 9 -279 -3 -53 -10 -60 -9 -102 16
-64 38 -158 71 -239 84 -38 6 -82 14 -96 17 -19 4 -29 0 -34 -13z m191 -134
c117 -36 117 -35 38 -81 -38 -22 -77 -47 -87 -56 -26 -23 -37 -2 -37 70 0 31
-3 63 -6 72 -8 21 9 20 92 -5z m909 -61 c-4 -46 -8 -85 -10 -87 -2 -2 -17 7
-33 21 -15 13 -54 37 -85 53 -31 17 -57 33 -57 36 0 6 156 58 179 58 11 1 12
-14 6 -81z m-378 -23 c151 -29 311 -128 400 -248 98 -132 128 -231 121 -397
-4 -88 -10 -118 -37 -185 -38 -95 -96 -174 -173 -232 l-55 -42 -12 -78 c-21
-135 -14 -124 -90 -121 l-66 3 3 67 4 68 -40 -14 c-83 -30 -268 -30 -364 0
-16 5 -18 -2 -18 -56 l0 -61 -67 3 -67 3 -17 93 c-13 77 -20 96 -40 109 -61
40 -147 142 -183 213 -65 134 -80 261 -47 392 37 145 117 264 234 352 173 129
323 167 514 131z m-899 -567 c28 -28 7 -78 -33 -78 -43 0 -58 39 -28 72 19 21
44 23 61 6z m1635 -9 c8 -13 6 -24 -6 -43 -28 -42 -77 -29 -77 21 0 40 61 56
83 22z"/>
<path d="M1557 2412 c-24 -26 -21 -65 6 -90 27 -26 54 -28 85 -6 28 19 30 74
4 97 -25 22 -75 21 -95 -1z"/>
<path d="M1996 2414 c-35 -34 -5 -114 43 -114 29 0 71 39 71 66 0 52 -77 85
-114 48z"/>
<path d="M1700 2203 c-75 -40 -112 -89 -118 -157 -6 -74 11 -118 64 -165 51
-44 104 -61 197 -61 172 0 294 148 228 277 -61 120 -244 172 -371 106z m40
-189 c0 -55 -13 -72 -24 -31 -8 29 -8 82 0 90 15 15 24 -8 24 -59z m205 8 c0
-70 -19 -67 -23 4 -2 43 0 55 10 52 8 -3 13 -23 13 -56z"/>
<path d="M2927 932 c-25 -27 -22 -78 5 -96 45 -32 101 -9 113 46 14 55 -78 94
-118 50z"/>
<path d="M2130 834 l0 -56 -32 4 -33 3 1 -55 c2 -54 2 -55 33 -58 l31 -3 0
-87 c0 -48 5 -107 11 -132 19 -83 84 -127 170 -115 l49 7 0 58 0 57 -40 -1
c-26 0 -44 5 -50 14 -5 8 -10 57 -10 108 l0 92 50 0 50 0 0 55 0 55 -50 0 -50
0 0 55 0 55 -65 0 -65 0 0 -56z"/>
<path d="M618 864 c-5 -4 -8 -124 -8 -266 l0 -258 60 0 60 0 0 69 0 68 94 5
c79 4 102 10 140 32 93 54 119 187 55 278 -40 56 -88 71 -249 76 -80 2 -148 1
-152 -4z m293 -143 c23 -29 25 -78 2 -103 -13 -14 -31 -18 -95 -18 l-78 0 0
76 0 76 76 -4 c65 -3 79 -7 95 -27z"/>
<path d="M1236 776 c-57 -21 -87 -46 -121 -101 -79 -128 -2 -306 145 -337 70
-14 152 7 200 52 l33 31 -34 29 c-33 29 -59 38 -59 22 0 -15 -49 -32 -89 -32
-23 0 -51 9 -71 23 -65 43 -55 47 119 47 l161 0 0 43 c0 58 -17 116 -47 155
-49 65 -159 97 -237 68z m139 -120 c14 -9 25 -25 25 -36 0 -19 -7 -20 -100
-20 -55 0 -100 3 -100 6 0 16 24 45 48 59 32 18 92 14 127 -9z"/>
<path d="M2430 729 l0 -60 95 3 c52 2 95 1 95 -1 0 -2 -45 -52 -100 -111
l-100 -108 0 -56 0 -56 205 0 205 0 0 60 0 60 -116 0 -117 0 69 73 c136 143
164 181 164 221 l0 36 -200 0 -200 0 0 -61z"/>
<path d="M1590 560 l0 -220 60 0 60 0 0 131 c0 74 5 139 11 150 16 31 66 49
101 37 51 -18 58 -39 58 -185 l0 -133 66 0 66 0 -3 163 c-4 182 -13 210 -80
255 -29 20 -44 23 -96 20 -45 -3 -71 -10 -93 -26 l-30 -23 0 26 c0 24 -2 25
-60 25 l-60 0 0 -220z"/>
<path d="M2910 555 l0 -215 65 0 65 0 0 215 0 215 -65 0 -65 0 0 -215z"/>
</g>
</svg>
